# xmcd CD database file
#
# Track frame offsets:
#	150
#	34437
#	63106
#	101685
#	129945
#	167647
#	201821
#	220909
#	255255
#	279587
#
# Disc length: 4043 seconds
#
# Revision: 0
# Processed by: cddbd v1.5.2PL0 Copyright (c) Steve Scherf et al.
# Submitted via: CDex 1.70beta2
#
DISCID=8a0fc90a
DTITLE=Mulo Francel - escape
DYEAR=2012
DGENRE=Jazz
TTITLE0=Escape
TTITLE1=With the Poet in Italia
TTITLE2=Trip to Batumi
TTITLE3=For Pauline
TTITLE4=Suedlichere Tage
TTITLE5=Café Europa
TTITLE6=Susannata
TTITLE7=Angelo del Gatto
TTITLE8=Cacao
TTITLE9=La vida del Senor Lorenzo
EXTD=YEAR: 2012
EXTT0=
EXTT1=
EXTT2=
EXTT3=
EXTT4=
EXTT5=
EXTT6=
EXTT7=
EXTT8=
EXTT9=
PLAYORDER=
